<svg width="42" height="42" viewBox="0 0 42 42" fill="none" xmlns="http://www.w3.org/2000/svg">
<rect width="42" height="42" fill="#F5F5F5"/>
<g clip-path="url(#clip0_0_1)">
<rect width="1440" height="1024" transform="translate(-324 -200)" fill="#EAF6FE"/>
<path d="M-324 -120H1116V154C1116 163.941 1107.94 172 1098 172H-306C-315.941 172 -324 163.941 -324 154V-120Z" fill="url(#paint0_linear_0_1)"/>
<rect x="-14" y="-14" width="256" height="147" rx="8" fill="white"/>
<rect width="42" height="42" rx="21" fill="#0E103D" fill-opacity="0.1"/>
<mask id="path-4-outside-1_0_1" maskUnits="userSpaceOnUse" x="8.99927" y="9.00012" width="24" height="24" fill="black">
<rect fill="white" x="8.99927" y="9.00012" width="24" height="24"/>
<path d="M31.5751 19.8421L28.9724 13.4738H30.7411C30.8346 13.4715 30.9237 13.4278 30.9889 13.352C31.0542 13.2762 31.0905 13.1745 31.09 13.0687V11.0926C31.0899 11.0412 31.0808 10.9904 31.0632 10.9431C31.0455 10.8958 31.0197 10.853 30.9872 10.8171C30.9547 10.7812 30.9162 10.753 30.8739 10.7341C30.8317 10.7152 30.7865 10.7061 30.7411 10.7072H22.3297C22.1564 10.485 21.9432 10.307 21.7042 10.1851C21.4653 10.0632 21.2062 10.0001 20.944 10.0001C20.6818 10.0001 20.4227 10.0632 20.1838 10.1851C19.9448 10.307 19.7316 10.485 19.5583 10.7072H11.1032C11.0578 10.7061 11.0126 10.7152 10.9703 10.7341C10.9281 10.753 10.8896 10.7812 10.8571 10.8171C10.8246 10.853 10.7987 10.8958 10.7811 10.9431C10.7634 10.9904 10.7543 11.0412 10.7543 11.0926V13.0687C10.7538 13.1745 10.79 13.2762 10.8553 13.352C10.9206 13.4278 11.0096 13.4715 11.1032 13.4738H12.9156L10.3129 19.8421C10.227 19.8516 10.1474 19.8969 10.0894 19.9691C10.0315 20.0413 9.99934 20.1353 9.99927 20.2327C9.99913 21.007 10.2025 21.764 10.5836 22.4076C10.9647 23.0512 11.5064 23.5525 12.14 23.848C12.7735 24.1434 13.4705 24.2197 14.1425 24.0672C14.8145 23.9147 15.4313 23.5402 15.9147 22.9913C16.2409 22.6319 16.5003 22.2027 16.6777 21.7286C16.8551 21.2546 16.947 20.7453 16.9479 20.2306C16.9477 20.1289 16.9124 20.0313 16.8495 19.9586C16.7866 19.8858 16.7011 19.8436 16.6111 19.8409L14.009 13.4738H19.5583C19.6088 13.5233 19.6625 13.589 19.7195 13.6459V26.5215C19.2442 26.7623 18.8329 27.1393 18.5265 27.615C18.22 28.0908 18.029 28.6489 17.9724 29.2338H16.5519C16.5081 29.2316 16.4643 29.2396 16.4234 29.2574C16.3825 29.2752 16.3453 29.3024 16.3142 29.3373C16.283 29.3722 16.2587 29.414 16.2426 29.4601C16.2266 29.5062 16.2192 29.5556 16.2209 29.6051V31.5813C16.2209 31.7996 16.3587 32.0005 16.5519 32.0005H25.3361C25.5293 32.0005 25.6671 31.7996 25.6671 31.5813V29.6051C25.6688 29.5556 25.6614 29.5062 25.6454 29.4601C25.6293 29.414 25.605 29.3722 25.5738 29.3373C25.5427 29.3024 25.5055 29.2752 25.4646 29.2574C25.4237 29.2396 25.3799 29.2316 25.3361 29.2338H23.9156C23.859 28.6489 23.668 28.0908 23.3615 27.615C23.0551 27.1393 22.6438 26.7623 22.1685 26.5215V13.6459C22.2254 13.589 22.2792 13.5233 22.3297 13.4738H27.879L25.2769 19.8408C25.1867 19.844 25.1012 19.8866 25.0383 19.9598C24.9755 20.0329 24.9403 20.1308 24.9402 20.2328C24.9401 21.007 25.1435 21.7639 25.5246 22.4075C25.9057 23.0511 26.4473 23.5523 27.0808 23.8478C27.7144 24.1432 28.4113 24.2195 29.0833 24.0671C29.7553 23.9146 30.372 23.5402 30.8555 22.9913C31.1816 22.6324 31.441 22.2036 31.6184 21.7299C31.7958 21.2563 31.8877 20.7474 31.8886 20.2331C31.8885 20.1356 31.8564 20.0416 31.7985 19.9693C31.7406 19.8971 31.6609 19.8517 31.5751 19.8421ZM30.8036 19.847H26.0476L28.4255 14.0241L30.8036 19.847ZM20.944 10.7806C21.1716 10.7806 21.3941 10.8568 21.5833 10.9997C21.7725 11.1425 21.92 11.3455 22.0071 11.583C22.0942 11.8206 22.117 12.082 22.0726 12.3341C22.0282 12.5863 21.9187 12.8179 21.7577 12.9997C21.5968 13.1815 21.3918 13.3054 21.1686 13.3555C20.9453 13.4057 20.714 13.38 20.5037 13.2816C20.2934 13.1832 20.1137 13.0166 19.9872 12.8028C19.8608 12.5891 19.7933 12.3378 19.7933 12.0806C19.7936 11.736 19.9149 11.4055 20.1307 11.1618C20.3464 10.9181 20.6389 10.781 20.944 10.7806ZM13.4623 14.0241L15.8404 19.847H11.0844L13.4623 14.0241ZM13.4623 23.3639C12.7904 23.3623 12.1419 23.0848 11.6376 22.5833C11.1333 22.0817 10.8076 21.3902 10.721 20.6375H16.2246C16.0451 22.1196 14.8531 23.3639 13.4623 23.3639ZM11.454 12.6834V11.4977H19.1698C19.0681 11.8846 19.0681 12.2965 19.1698 12.6834H11.454ZM24.9674 31.21H16.9206V30.0243H24.9674V31.21ZM23.2103 29.2338H18.6777C18.8466 27.9493 19.7986 27.0388 20.944 27.0388C22.0894 27.0388 23.0414 27.9493 23.2103 29.2338ZM21.4688 26.2774C21.1217 26.2066 20.7663 26.2066 20.4192 26.2774V14.0848C20.7617 14.1996 21.1263 14.1996 21.4688 14.0848V26.2774ZM22.7182 11.4977H30.3903V12.6834H22.7182C22.8199 12.2965 22.8199 11.8846 22.7182 11.4977ZM28.4034 23.3639C27.7315 23.3623 27.083 23.0849 26.5787 22.5833C26.0744 22.0817 25.7486 21.3902 25.6621 20.6375H31.1657C30.9862 22.1196 29.7941 23.3639 28.4033 23.3639H28.4034Z"/>
</mask>
<path d="M31.5751 19.8421L28.9724 13.4738H30.7411C30.8346 13.4715 30.9237 13.4278 30.9889 13.352C31.0542 13.2762 31.0905 13.1745 31.09 13.0687V11.0926C31.0899 11.0412 31.0808 10.9904 31.0632 10.9431C31.0455 10.8958 31.0197 10.853 30.9872 10.8171C30.9547 10.7812 30.9162 10.753 30.8739 10.7341C30.8317 10.7152 30.7865 10.7061 30.7411 10.7072H22.3297C22.1564 10.485 21.9432 10.307 21.7042 10.1851C21.4653 10.0632 21.2062 10.0001 20.944 10.0001C20.6818 10.0001 20.4227 10.0632 20.1838 10.1851C19.9448 10.307 19.7316 10.485 19.5583 10.7072H11.1032C11.0578 10.7061 11.0126 10.7152 10.9703 10.7341C10.9281 10.753 10.8896 10.7812 10.8571 10.8171C10.8246 10.853 10.7987 10.8958 10.7811 10.9431C10.7634 10.9904 10.7543 11.0412 10.7543 11.0926V13.0687C10.7538 13.1745 10.79 13.2762 10.8553 13.352C10.9206 13.4278 11.0096 13.4715 11.1032 13.4738H12.9156L10.3129 19.8421C10.227 19.8516 10.1474 19.8969 10.0894 19.9691C10.0315 20.0413 9.99934 20.1353 9.99927 20.2327C9.99913 21.007 10.2025 21.764 10.5836 22.4076C10.9647 23.0512 11.5064 23.5525 12.14 23.848C12.7735 24.1434 13.4705 24.2197 14.1425 24.0672C14.8145 23.9147 15.4313 23.5402 15.9147 22.9913C16.2409 22.6319 16.5003 22.2027 16.6777 21.7286C16.8551 21.2546 16.947 20.7453 16.9479 20.2306C16.9477 20.1289 16.9124 20.0313 16.8495 19.9586C16.7866 19.8858 16.7011 19.8436 16.6111 19.8409L14.009 13.4738H19.5583C19.6088 13.5233 19.6625 13.589 19.7195 13.6459V26.5215C19.2442 26.7623 18.8329 27.1393 18.5265 27.615C18.22 28.0908 18.029 28.6489 17.9724 29.2338H16.5519C16.5081 29.2316 16.4643 29.2396 16.4234 29.2574C16.3825 29.2752 16.3453 29.3024 16.3142 29.3373C16.283 29.3722 16.2587 29.414 16.2426 29.4601C16.2266 29.5062 16.2192 29.5556 16.2209 29.6051V31.5813C16.2209 31.7996 16.3587 32.0005 16.5519 32.0005H25.3361C25.5293 32.0005 25.6671 31.7996 25.6671 31.5813V29.6051C25.6688 29.5556 25.6614 29.5062 25.6454 29.4601C25.6293 29.414 25.605 29.3722 25.5738 29.3373C25.5427 29.3024 25.5055 29.2752 25.4646 29.2574C25.4237 29.2396 25.3799 29.2316 25.3361 29.2338H23.9156C23.859 28.6489 23.668 28.0908 23.3615 27.615C23.0551 27.1393 22.6438 26.7623 22.1685 26.5215V13.6459C22.2254 13.589 22.2792 13.5233 22.3297 13.4738H27.879L25.2769 19.8408C25.1867 19.844 25.1012 19.8866 25.0383 19.9598C24.9755 20.0329 24.9403 20.1308 24.9402 20.2328C24.9401 21.007 25.1435 21.7639 25.5246 22.4075C25.9057 23.0511 26.4473 23.5523 27.0808 23.8478C27.7144 24.1432 28.4113 24.2195 29.0833 24.0671C29.7553 23.9146 30.372 23.5402 30.8555 22.9913C31.1816 22.6324 31.441 22.2036 31.6184 21.7299C31.7958 21.2563 31.8877 20.7474 31.8886 20.2331C31.8885 20.1356 31.8564 20.0416 31.7985 19.9693C31.7406 19.8971 31.6609 19.8517 31.5751 19.8421ZM30.8036 19.847H26.0476L28.4255 14.0241L30.8036 19.847ZM20.944 10.7806C21.1716 10.7806 21.3941 10.8568 21.5833 10.9997C21.7725 11.1425 21.92 11.3455 22.0071 11.583C22.0942 11.8206 22.117 12.082 22.0726 12.3341C22.0282 12.5863 21.9187 12.8179 21.7577 12.9997C21.5968 13.1815 21.3918 13.3054 21.1686 13.3555C20.9453 13.4057 20.714 13.38 20.5037 13.2816C20.2934 13.1832 20.1137 13.0166 19.9872 12.8028C19.8608 12.5891 19.7933 12.3378 19.7933 12.0806C19.7936 11.736 19.9149 11.4055 20.1307 11.1618C20.3464 10.9181 20.6389 10.781 20.944 10.7806ZM13.4623 14.0241L15.8404 19.847H11.0844L13.4623 14.0241ZM13.4623 23.3639C12.7904 23.3623 12.1419 23.0848 11.6376 22.5833C11.1333 22.0817 10.8076 21.3902 10.721 20.6375H16.2246C16.0451 22.1196 14.8531 23.3639 13.4623 23.3639ZM11.454 12.6834V11.4977H19.1698C19.0681 11.8846 19.0681 12.2965 19.1698 12.6834H11.454ZM24.9674 31.21H16.9206V30.0243H24.9674V31.21ZM23.2103 29.2338H18.6777C18.8466 27.9493 19.7986 27.0388 20.944 27.0388C22.0894 27.0388 23.0414 27.9493 23.2103 29.2338ZM21.4688 26.2774C21.1217 26.2066 20.7663 26.2066 20.4192 26.2774V14.0848C20.7617 14.1996 21.1263 14.1996 21.4688 14.0848V26.2774ZM22.7182 11.4977H30.3903V12.6834H22.7182C22.8199 12.2965 22.8199 11.8846 22.7182 11.4977ZM28.4034 23.3639C27.7315 23.3623 27.083 23.0849 26.5787 22.5833C26.0744 22.0817 25.7486 21.3902 25.6621 20.6375H31.1657C30.9862 22.1196 29.7941 23.3639 28.4033 23.3639H28.4034Z" fill="#0E103D"/>
<path d="M31.5751 19.8421L28.9724 13.4738H30.7411C30.8346 13.4715 30.9237 13.4278 30.9889 13.352C31.0542 13.2762 31.0905 13.1745 31.09 13.0687V11.0926C31.0899 11.0412 31.0808 10.9904 31.0632 10.9431C31.0455 10.8958 31.0197 10.853 30.9872 10.8171C30.9547 10.7812 30.9162 10.753 30.8739 10.7341C30.8317 10.7152 30.7865 10.7061 30.7411 10.7072H22.3297C22.1564 10.485 21.9432 10.307 21.7042 10.1851C21.4653 10.0632 21.2062 10.0001 20.944 10.0001C20.6818 10.0001 20.4227 10.0632 20.1838 10.1851C19.9448 10.307 19.7316 10.485 19.5583 10.7072H11.1032C11.0578 10.7061 11.0126 10.7152 10.9703 10.7341C10.9281 10.753 10.8896 10.7812 10.8571 10.8171C10.8246 10.853 10.7987 10.8958 10.7811 10.9431C10.7634 10.9904 10.7543 11.0412 10.7543 11.0926V13.0687C10.7538 13.1745 10.79 13.2762 10.8553 13.352C10.9206 13.4278 11.0096 13.4715 11.1032 13.4738H12.9156L10.3129 19.8421C10.227 19.8516 10.1474 19.8969 10.0894 19.9691C10.0315 20.0413 9.99934 20.1353 9.99927 20.2327C9.99913 21.007 10.2025 21.764 10.5836 22.4076C10.9647 23.0512 11.5064 23.5525 12.14 23.848C12.7735 24.1434 13.4705 24.2197 14.1425 24.0672C14.8145 23.9147 15.4313 23.5402 15.9147 22.9913C16.2409 22.6319 16.5003 22.2027 16.6777 21.7286C16.8551 21.2546 16.947 20.7453 16.9479 20.2306C16.9477 20.1289 16.9124 20.0313 16.8495 19.9586C16.7866 19.8858 16.7011 19.8436 16.6111 19.8409L14.009 13.4738H19.5583C19.6088 13.5233 19.6625 13.589 19.7195 13.6459V26.5215C19.2442 26.7623 18.8329 27.1393 18.5265 27.615C18.22 28.0908 18.029 28.6489 17.9724 29.2338H16.5519C16.5081 29.2316 16.4643 29.2396 16.4234 29.2574C16.3825 29.2752 16.3453 29.3024 16.3142 29.3373C16.283 29.3722 16.2587 29.414 16.2426 29.4601C16.2266 29.5062 16.2192 29.5556 16.2209 29.6051V31.5813C16.2209 31.7996 16.3587 32.0005 16.5519 32.0005H25.3361C25.5293 32.0005 25.6671 31.7996 25.6671 31.5813V29.6051C25.6688 29.5556 25.6614 29.5062 25.6454 29.4601C25.6293 29.414 25.605 29.3722 25.5738 29.3373C25.5427 29.3024 25.5055 29.2752 25.4646 29.2574C25.4237 29.2396 25.3799 29.2316 25.3361 29.2338H23.9156C23.859 28.6489 23.668 28.0908 23.3615 27.615C23.0551 27.1393 22.6438 26.7623 22.1685 26.5215V13.6459C22.2254 13.589 22.2792 13.5233 22.3297 13.4738H27.879L25.2769 19.8408C25.1867 19.844 25.1012 19.8866 25.0383 19.9598C24.9755 20.0329 24.9403 20.1308 24.9402 20.2328C24.9401 21.007 25.1435 21.7639 25.5246 22.4075C25.9057 23.0511 26.4473 23.5523 27.0808 23.8478C27.7144 24.1432 28.4113 24.2195 29.0833 24.0671C29.7553 23.9146 30.372 23.5402 30.8555 22.9913C31.1816 22.6324 31.441 22.2036 31.6184 21.7299C31.7958 21.2563 31.8877 20.7474 31.8886 20.2331C31.8885 20.1356 31.8564 20.0416 31.7985 19.9693C31.7406 19.8971 31.6609 19.8517 31.5751 19.8421ZM30.8036 19.847H26.0476L28.4255 14.0241L30.8036 19.847ZM20.944 10.7806C21.1716 10.7806 21.3941 10.8568 21.5833 10.9997C21.7725 11.1425 21.92 11.3455 22.0071 11.583C22.0942 11.8206 22.117 12.082 22.0726 12.3341C22.0282 12.5863 21.9187 12.8179 21.7577 12.9997C21.5968 13.1815 21.3918 13.3054 21.1686 13.3555C20.9453 13.4057 20.714 13.38 20.5037 13.2816C20.2934 13.1832 20.1137 13.0166 19.9872 12.8028C19.8608 12.5891 19.7933 12.3378 19.7933 12.0806C19.7936 11.736 19.9149 11.4055 20.1307 11.1618C20.3464 10.9181 20.6389 10.781 20.944 10.7806ZM13.4623 14.0241L15.8404 19.847H11.0844L13.4623 14.0241ZM13.4623 23.3639C12.7904 23.3623 12.1419 23.0848 11.6376 22.5833C11.1333 22.0817 10.8076 21.3902 10.721 20.6375H16.2246C16.0451 22.1196 14.8531 23.3639 13.4623 23.3639ZM11.454 12.6834V11.4977H19.1698C19.0681 11.8846 19.0681 12.2965 19.1698 12.6834H11.454ZM24.9674 31.21H16.9206V30.0243H24.9674V31.21ZM23.2103 29.2338H18.6777C18.8466 27.9493 19.7986 27.0388 20.944 27.0388C22.0894 27.0388 23.0414 27.9493 23.2103 29.2338ZM21.4688 26.2774C21.1217 26.2066 20.7663 26.2066 20.4192 26.2774V14.0848C20.7617 14.1996 21.1263 14.1996 21.4688 14.0848V26.2774ZM22.7182 11.4977H30.3903V12.6834H22.7182C22.8199 12.2965 22.8199 11.8846 22.7182 11.4977ZM28.4034 23.3639C27.7315 23.3623 27.083 23.0849 26.5787 22.5833C26.0744 22.0817 25.7486 21.3902 25.6621 20.6375H31.1657C30.9862 22.1196 29.7941 23.3639 28.4033 23.3639H28.4034Z" stroke="#0E103D" stroke-width="0.248814" mask="url(#path-4-outside-1_0_1)"/>
</g>
<defs>
<linearGradient id="paint0_linear_0_1" x1="396" y1="-120" x2="396" y2="172" gradientUnits="userSpaceOnUse">
<stop stop-color="#2752E7" stop-opacity="0.1"/>
<stop offset="1" stop-color="#D9D9D9" stop-opacity="0"/>
</linearGradient>
<clipPath id="clip0_0_1">
<rect width="1440" height="1024" fill="white" transform="translate(-324 -200)"/>
</clipPath>
</defs>
</svg>
