<svg width="42" height="42" viewBox="0 0 42 42" fill="none" xmlns="http://www.w3.org/2000/svg">
<rect width="42" height="42" fill="#F5F5F5"/>
<g clip-path="url(#clip0_0_1)">
<rect width="1440" height="1024" transform="translate(-886 -200)" fill="#EAF6FE"/>
<path d="M-886 -120H554V154C554 163.941 545.941 172 536 172H-868C-877.941 172 -886 163.941 -886 154V-120Z" fill="url(#paint0_linear_0_1)"/>
<rect x="-14" y="-14" width="256" height="147" rx="8" fill="white"/>
<rect width="42" height="42" rx="21" fill="#E04D01" fill-opacity="0.1"/>
<path d="M21.7717 31.8571L21.878 31.9639L21.9844 31.8571L29.7584 24.0436L29.8637 23.9378L29.7584 23.832L17.8809 11.8942L17.8369 11.85H17.7745H10.0005H9.85049V12V19.8135V19.8754L9.89415 19.9193L21.7717 31.8571ZM28.4554 23.9378L21.878 30.5485L10.8472 19.4617V12.8502H17.4237L28.4554 23.9378Z" fill="#E04D01" stroke="#E04D01" stroke-width="0.3"/>
<path d="M24.4733 31.9467L24.5806 32.0565L24.6879 31.9467L32.2156 24.2442L32.3181 24.1394L32.2156 24.0345L20.4402 11.9857L20.3329 11.876L20.2256 11.9857L19.7331 12.4897L19.6306 12.5946L19.7331 12.6994L30.9135 24.1394L23.9808 31.233L23.8783 31.3379L23.9808 31.4427L24.4733 31.9467ZM12.3068 16.9762C12.3068 18.2352 13.3081 19.2648 14.5469 19.2648C15.7856 19.2648 16.7869 18.2352 16.7869 16.9762C16.7869 15.7172 15.7856 14.6876 14.5469 14.6876C13.3081 14.6876 12.3068 15.7172 12.3068 16.9762ZM13.3035 16.9762C13.3035 16.2695 13.8645 15.7005 14.5469 15.7005C15.2292 15.7005 15.7902 16.2695 15.7902 16.9762C15.7902 17.6829 15.2292 18.2519 14.5469 18.2519C13.8645 18.2519 13.3035 17.6829 13.3035 16.9762Z" fill="#E04D01" stroke="#E04D01" stroke-width="0.3"/>
</g>
<defs>
<linearGradient id="paint0_linear_0_1" x1="-166" y1="-120" x2="-166" y2="172" gradientUnits="userSpaceOnUse">
<stop stop-color="#2752E7" stop-opacity="0.1"/>
<stop offset="1" stop-color="#D9D9D9" stop-opacity="0"/>
</linearGradient>
<clipPath id="clip0_0_1">
<rect width="1440" height="1024" fill="white" transform="translate(-886 -200)"/>
</clipPath>
</defs>
</svg>
