<svg width="79" height="22" viewBox="0 0 79 22" fill="none" xmlns="http://www.w3.org/2000/svg">
<rect width="79" height="22" fill="#F5F5F5"/>
<g clip-path="url(#clip0_0_1)">
<rect width="1440" height="1024" transform="translate(-473 -203)" fill="#EAF6FE"/>
<path d="M-473 -123H967V151C967 160.941 958.941 169 949 169H-455C-464.941 169 -473 160.941 -473 151V-123Z" fill="url(#paint0_linear_0_1)"/>
<rect x="-163" y="-17" width="256" height="147" rx="8" fill="white"/>
<path d="M63.6764 3.21851C66.5415 -3.77577 74.4206 7.42803 78.002 13.9042V35H1.00195V6.13278C4.58335 10.0185 5.4787 8.07564 8.16475 7.10421C10.8508 6.13278 9.95544 3.21851 16.2229 11.9614C22.4903 20.7042 24.281 13.9042 24.281 11.9614C24.281 10.0185 27.8624 -3.58149 31.4438 8.07564C35.0252 19.7328 36.8159 25.5613 39.502 16.8185C42.188 8.07564 43.9787 5.16136 50.2461 10.9899C56.5136 16.8185 60.095 11.9614 63.6764 3.21851Z" fill="url(#paint1_linear_0_1)"/>
<path d="M78.002 13.8862C74.4206 7.41904 66.5415 -3.76909 63.6764 3.21541C60.095 11.946 56.5136 16.7964 50.2461 10.976C43.9787 5.15554 42.188 8.06574 39.502 16.7964C36.8159 25.527 35.0252 19.7066 31.4438 8.06574C27.8624 -3.57509 24.281 10.0059 24.281 11.946C24.281 13.8862 22.4903 20.6766 16.2229 11.946C9.95544 3.21541 10.8508 6.12561 8.16475 7.09567C5.4787 8.06574 4.58335 10.0059 1.00196 6.12561" stroke="#35DC94" stroke-linecap="round"/>
</g>
<defs>
<linearGradient id="paint0_linear_0_1" x1="247" y1="-123" x2="247" y2="169" gradientUnits="userSpaceOnUse">
<stop stop-color="#2752E7" stop-opacity="0.1"/>
<stop offset="1" stop-color="#D9D9D9" stop-opacity="0"/>
</linearGradient>
<linearGradient id="paint1_linear_0_1" x1="39.502" y1="-18" x2="39.502" y2="35" gradientUnits="userSpaceOnUse">
<stop stop-color="#35DC94"/>
<stop offset="0.598958" stop-color="#E9F5F0" stop-opacity="0.640589"/>
<stop offset="0.9998" stop-color="#FBFEFD" stop-opacity="0.0222222"/>
<stop offset="0.9999" stop-color="white" stop-opacity="0"/>
</linearGradient>
<clipPath id="clip0_0_1">
<rect width="1440" height="1024" fill="white" transform="translate(-473 -203)"/>
</clipPath>
</defs>
</svg>
