<svg width="42" height="42" viewBox="0 0 42 42" fill="none" xmlns="http://www.w3.org/2000/svg">
<rect width="42" height="42" fill="#F5F5F5"/>
<g clip-path="url(#clip0_0_1)">
<rect width="1440" height="1024" transform="translate(-604 -200)" fill="#EAF6FE"/>
<path d="M-604 -120H836V154C836 163.941 827.941 172 818 172H-586C-595.941 172 -604 163.941 -604 154V-120Z" fill="url(#paint0_linear_0_1)"/>
<rect x="-14" y="-14" width="256" height="147" rx="8" fill="white"/>
<rect width="42" height="42" rx="21" fill="#994636" fill-opacity="0.1"/>
<path d="M15.4606 21.86C15.03 21.86 14.6805 22.2318 14.6805 22.6918V31.0105C14.6805 31.4706 15.03 31.8424 15.4606 31.8424H18.5809C19.0115 31.8424 19.361 31.4706 19.361 31.0105V22.6918C19.361 22.2318 19.0115 21.86 18.5809 21.86H15.4606ZM17.8008 30.1787H16.2407V23.5237H17.8008V30.1787ZM21.7012 18.5325C21.2706 18.5325 20.9211 18.9043 20.9211 19.3643V31.0105C20.9211 31.4706 21.2706 31.8424 21.7012 31.8424H24.8216C25.2522 31.8424 25.6016 31.4706 25.6016 31.0105V19.3643C25.6016 18.9043 25.2522 18.5325 24.8216 18.5325H21.7012ZM24.0415 30.1787H22.4813V20.1962H24.0415V30.1787ZM31.0622 13.5412H27.9419C27.5113 13.5412 27.1618 13.9131 27.1618 14.3731V31.0105C27.1618 31.4706 27.5113 31.8424 27.9419 31.8424H31.0622C31.4928 31.8424 31.8423 31.4706 31.8423 31.0105V14.3731C31.8423 13.9131 31.4928 13.5412 31.0622 13.5412ZM30.2821 30.1787H28.722V15.205H30.2821V30.1787ZM26.6282 10.3685C26.4683 10.1139 26.189 9.97418 25.9035 10.0041L22.3799 10.376C22.1069 10.4043 21.8682 10.5848 21.7511 10.8485C21.6341 11.113 21.656 11.4241 21.8089 11.667L22.3705 12.5596L10.3456 21.1695C9.98752 21.4257 9.89235 21.9423 10.1326 22.3241C10.2832 22.5629 10.5297 22.6918 10.7809 22.6918C10.9299 22.6918 11.0812 22.6461 11.2146 22.5504L23.2403 13.9422L23.6756 14.6335C23.8215 14.8639 24.0649 15.0012 24.3239 15.0012C24.3371 15.0012 24.3512 15.0012 24.3644 15.0003C24.639 14.9845 24.8847 14.8173 25.0135 14.5586L26.6703 11.222C26.8045 10.9516 26.7889 10.623 26.6282 10.3685ZM24.2443 12.5513L23.8316 11.895L24.6117 11.8126L24.2443 12.5513Z" fill="#994636"/>
</g>
<defs>
<linearGradient id="paint0_linear_0_1" x1="116" y1="-120" x2="116" y2="172" gradientUnits="userSpaceOnUse">
<stop stop-color="#2752E7" stop-opacity="0.1"/>
<stop offset="1" stop-color="#D9D9D9" stop-opacity="0"/>
</linearGradient>
<clipPath id="clip0_0_1">
<rect width="1440" height="1024" fill="white" transform="translate(-604 -200)"/>
</clipPath>
</defs>
</svg>
