<svg width="80" height="22" viewBox="0 0 80 22" fill="none" xmlns="http://www.w3.org/2000/svg">
<rect width="80" height="22" fill="#F5F5F5"/>
<g clip-path="url(#clip0_0_1)">
<rect width="1440" height="1024" transform="translate(-193 -203)" fill="#EAF6FE"/>
<path d="M-193 -123H1247V151C1247 160.941 1238.94 169 1229 169H-175C-184.941 169 -193 160.941 -193 151V-123Z" fill="url(#paint0_linear_0_1)"/>
<rect x="-163" y="-17" width="256" height="147" rx="8" fill="white"/>
<path d="M64.4884 3.21851C67.3907 -3.77577 75.3721 7.42803 79 13.9042V35H1V6.13278C4.62791 10.0185 5.53488 8.07564 8.25581 7.10421C10.9767 6.13278 10.0698 3.21851 16.4186 11.9614C22.7674 20.7042 24.5814 13.9042 24.5814 11.9614C24.5814 10.0185 28.2093 -3.58149 31.8372 8.07564C35.4651 19.7328 37.2791 25.5613 40 16.8185C42.7209 8.07564 44.5349 5.16136 50.8837 10.9899C57.2326 16.8185 60.8605 11.9614 64.4884 3.21851Z" fill="url(#paint1_linear_0_1)"/>
<path d="M79 13.8862C75.3721 7.41904 67.3907 -3.76909 64.4884 3.21541C60.8605 11.946 57.2326 16.7964 50.8837 10.976C44.5349 5.15554 42.7209 8.06574 40 16.7964C37.2791 25.527 35.4651 19.7066 31.8372 8.06574C28.2093 -3.57509 24.5814 10.0059 24.5814 11.946C24.5814 13.8862 22.7674 20.6766 16.4186 11.946C10.0698 3.21541 10.9767 6.12561 8.25581 7.09567C5.53488 8.06574 4.62791 10.0059 1 6.12561" stroke="#E11D1D" stroke-linecap="round"/>
</g>
<defs>
<linearGradient id="paint0_linear_0_1" x1="527" y1="-123" x2="527" y2="169" gradientUnits="userSpaceOnUse">
<stop stop-color="#2752E7" stop-opacity="0.1"/>
<stop offset="1" stop-color="#D9D9D9" stop-opacity="0"/>
</linearGradient>
<linearGradient id="paint1_linear_0_1" x1="40" y1="-18" x2="40" y2="35" gradientUnits="userSpaceOnUse">
<stop stop-color="#E11D1D"/>
<stop offset="0.65625" stop-color="#FFD9DC" stop-opacity="0.640589"/>
<stop offset="0.9998" stop-color="#FBFEFD" stop-opacity="0.0222222"/>
<stop offset="0.9999" stop-color="white" stop-opacity="0"/>
</linearGradient>
<clipPath id="clip0_0_1">
<rect width="1440" height="1024" fill="white" transform="translate(-193 -203)"/>
</clipPath>
</defs>
</svg>
