<svg width="24" height="24" viewBox="0 0 24 24" fill="none" xmlns="http://www.w3.org/2000/svg">
<path d="M11 18V6.8C11.5 6.6 12 6.3 12.3 5.9L15.8 7.2L12.9 14C12.4 16 13.9 17 16.4 17C18.9 17 20.5 16 19.9 14L17.3 7.7L18.2 8L18.9 6.1L13 4C13 2.8 12.3 1.6 11 1.1C9.8 0.6 8.5 1.1 7.7 2L1.9 0L1.2 1.8L2.8 2.4L0.0999999 9C-0.4 11 1.1 12 3.6 12C6.1 12 7.7 11 7.1 9L4.6 3.1L7 4C7 5.2 7.7 6.4 9 6.9V18H0V20H20V18H11ZM17.9 14H14.9L16.4 10.2L17.9 14ZM5.1 9H2.1L3.6 5.2L5.1 9ZM9.1 3.7C9.3 3.2 9.9 2.9 10.4 3.1C10.9 3.3 11.2 3.9 11 4.4C10.8 4.9 10.2 5.2 9.7 5C9.2 4.8 8.9 4.2 9.1 3.7Z" fill="#0E103D"/>
</svg>
