<svg width="42" height="42" viewBox="0 0 42 42" fill="none" xmlns="http://www.w3.org/2000/svg">
<rect width="42" height="42" fill="#F5F5F5"/>
<g clip-path="url(#clip0_0_1)">
<rect width="1440" height="1024" transform="translate(-1170 -200)" fill="#EAF6FE"/>
<path d="M-1170 -120H270V154C270 163.941 261.941 172 252 172H-1152C-1161.94 172 -1170 163.941 -1170 154V-120Z" fill="url(#paint0_linear_0_1)"/>
<rect x="-16" y="-14" width="256" height="147" rx="8" fill="white"/>
<rect width="42" height="42" rx="21" fill="#280000" fill-opacity="0.1"/>
<path d="M31.2864 27.5626V21.4635C31.2868 20.8088 31.1014 20.1675 30.752 19.6149L28.5399 16.1107V13.0703C28.5393 12.5214 28.3221 11.9952 27.9359 11.6071C27.5497 11.2189 27.0262 11.0006 26.48 11H12.0609C11.5147 11.0006 10.9911 11.2189 10.605 11.6071C10.2188 11.9952 10.0016 12.5214 10.001 13.0703V20.6615C10.0016 21.2104 10.2188 21.7367 10.605 22.1248C10.9911 22.5129 11.5147 22.7313 12.0609 22.7319H21.3303C21.5124 22.7319 21.6871 22.6592 21.8158 22.5297C21.9446 22.4003 22.0169 22.2248 22.0169 22.0418C22.0169 21.8587 21.9446 21.6832 21.8158 21.5538C21.6871 21.4244 21.5124 21.3516 21.3303 21.3516H12.0609C11.8788 21.3514 11.7043 21.2786 11.5756 21.1492C11.4469 21.0199 11.3745 20.8445 11.3742 20.6615V20.3165H21.3303C21.5124 20.3165 21.6871 20.2438 21.8158 20.1144C21.9446 19.9849 22.0169 19.8094 22.0169 19.6264C22.0169 19.4433 21.9446 19.2678 21.8158 19.1384C21.6871 19.009 21.5124 18.9363 21.3303 18.9363H11.3742V13.0703C11.3745 12.8874 11.4469 12.712 11.5756 12.5826C11.7043 12.4533 11.8788 12.3805 12.0609 12.3802H26.48C26.6621 12.3805 26.8366 12.4533 26.9653 12.5826C27.094 12.712 27.1664 12.8874 27.1666 13.0703V19.6085L25.9047 18.8305C25.5078 18.5857 25.0381 18.4883 24.5772 18.5554C24.1164 18.6225 23.6934 18.8497 23.3819 19.1976C23.0704 19.5455 22.89 19.9921 22.8721 20.4598C22.8542 20.9275 22.9998 21.3867 23.2838 21.7577L25.3665 24.4791C25.6427 24.8412 25.7927 25.2847 25.7934 25.741V27.5626H25.1068C24.9247 27.5626 24.75 27.6353 24.6212 27.7648C24.4925 27.8942 24.4201 28.0697 24.4201 28.2527V30.3231C24.4201 30.5061 24.4925 30.6816 24.6212 30.8111C24.75 30.9405 24.9247 31.0132 25.1068 31.0132H31.2864C31.4685 31.0132 31.6432 30.9405 31.7719 30.8111C31.9007 30.6816 31.973 30.5061 31.973 30.3231V28.2527C31.973 28.0697 31.9007 27.8942 31.7719 27.7648C31.6432 27.6353 31.4685 27.5626 31.2864 27.5626ZM26.4545 23.6373L24.3719 20.9159C24.2837 20.8007 24.2385 20.658 24.2441 20.5127C24.2497 20.3675 24.3058 20.2288 24.4025 20.1207C24.4993 20.0127 24.6307 19.9421 24.7739 19.9213C24.917 19.9005 25.0629 19.9307 25.1862 20.0068L27.4942 21.4298C27.5983 21.494 27.7175 21.529 27.8395 21.5315C27.9616 21.5339 28.0821 21.5036 28.1886 21.4436C28.2951 21.3837 28.3838 21.2963 28.4456 21.1905C28.5073 21.0846 28.5399 20.9642 28.5399 20.8415V18.6869L29.5926 20.3544C29.8022 20.686 29.9134 21.0707 29.9132 21.4635V27.5626H27.1666V25.741C27.1654 24.9802 26.9151 24.241 26.4545 23.6373ZM30.5998 29.633H25.7934V28.9429H30.5998V29.633ZM25.1068 17.211C25.4709 17.2106 25.82 17.0651 26.0774 16.8063C26.3349 16.5476 26.4797 16.1967 26.48 15.8308V14.4505C26.4797 14.0846 26.3349 13.7337 26.0774 13.475C25.82 13.2162 25.4709 13.0707 25.1068 13.0703H23.0469C22.6828 13.0707 22.3337 13.2162 22.0762 13.475C21.8188 13.7337 21.674 14.0846 21.6736 14.4505V15.8308C21.674 16.1967 21.8188 16.5476 22.0762 16.8063C22.3337 17.0651 22.6828 17.2106 23.0469 17.211H25.1068ZM23.0469 14.4505H25.1068L25.1078 15.8308H23.0469V14.4505ZM20.987 14.4505C20.987 14.6336 20.9147 14.8091 20.7859 14.9385C20.6571 15.068 20.4825 15.1407 20.3004 15.1407H17.8972C17.7151 15.1407 17.5404 15.068 17.4117 14.9385C17.2829 14.8091 17.2106 14.6336 17.2106 14.4505C17.2106 14.2675 17.2829 14.092 17.4117 13.9626C17.5404 13.8331 17.7151 13.7604 17.8972 13.7604H20.3004C20.4825 13.7604 20.6571 13.8331 20.7859 13.9626C20.9147 14.092 20.987 14.2675 20.987 14.4505ZM16.1806 13.7604C16.3627 13.7604 16.5374 13.8331 16.6661 13.9626C16.7949 14.092 16.8672 14.2675 16.8672 14.4505C16.8672 14.6336 16.7949 14.8091 16.6661 14.9385C16.5374 15.068 16.3627 15.1407 16.1806 15.1407H15.494C15.3119 15.1407 15.1372 15.068 15.0085 14.9385C14.8797 14.8091 14.8074 14.6336 14.8074 14.4505C14.8074 14.2675 14.8797 14.092 15.0085 13.9626C15.1372 13.8331 15.3119 13.7604 15.494 13.7604H16.1806ZM20.987 16.1758C20.987 16.3589 20.9147 16.5344 20.7859 16.6638C20.6571 16.7932 20.4825 16.8659 20.3004 16.8659H19.2704C19.0883 16.8659 18.9137 16.7932 18.7849 16.6638C18.6562 16.5344 18.5838 16.3589 18.5838 16.1758C18.5838 15.9928 18.6562 15.8173 18.7849 15.6878C18.9137 15.5584 19.0883 15.4857 19.2704 15.4857H20.3004C20.4825 15.4857 20.6571 15.5584 20.7859 15.6878C20.9147 15.8173 20.987 15.9928 20.987 16.1758Z" fill="#280000"/>
</g>
<defs>
<linearGradient id="paint0_linear_0_1" x1="-450" y1="-120" x2="-450" y2="172" gradientUnits="userSpaceOnUse">
<stop stop-color="#2752E7" stop-opacity="0.1"/>
<stop offset="1" stop-color="#D9D9D9" stop-opacity="0"/>
</linearGradient>
<clipPath id="clip0_0_1">
<rect width="1440" height="1024" fill="white" transform="translate(-1170 -200)"/>
</clipPath>
</defs>
</svg>
