<svg width="24" height="24" viewBox="0 0 24 24" fill="none" xmlns="http://www.w3.org/2000/svg">
<path d="M19.35 8.02V3.31H14.65L11.31 0L8.02 3.31H3.31V8.02L0 11.31L3.31 14.65V19.35H8.02L11.31 22.66L14.65 19.35H19.35V14.65L22.66 11.31L19.35 8.02ZM8.14 6.36C9.12 6.36 9.91 7.15 9.91 8.14C9.91 8.60943 9.72352 9.05964 9.39158 9.39158C9.05964 9.72352 8.60943 9.91 8.14 9.91C7.15 9.91 6.36 9.12 6.36 8.14C6.36 7.15 7.15 6.36 8.14 6.36ZM14.53 16.31C13.55 16.31 12.76 15.51 12.76 14.53C12.76 14.0606 12.9465 13.6104 13.2784 13.2784C13.6104 12.9465 14.0606 12.76 14.53 12.76C15.51 12.76 16.31 13.55 16.31 14.53C16.31 15.0021 16.1225 15.4548 15.7886 15.7886C15.4548 16.1225 15.0021 16.31 14.53 16.31ZM7.81 16.34L6.31 14.84L14.84 6.31L16.34 7.81L7.81 16.34Z" fill="#21BF73"/>
</svg>
