<svg width="42" height="42" viewBox="0 0 42 42" fill="none" xmlns="http://www.w3.org/2000/svg">
<rect width="42" height="42" fill="#F5F5F5"/>
<g clip-path="url(#clip0_0_1)">
<rect width="1440" height="1024" transform="translate(-44 -200)" fill="#EAF6FE"/>
<path d="M-44 -120H1396V154C1396 163.941 1387.94 172 1378 172H-26C-35.9411 172 -44 163.941 -44 154V-120Z" fill="url(#paint0_linear_0_1)"/>
<rect x="-14" y="-14" width="256" height="147" rx="8" fill="white"/>
<rect width="42" height="42" rx="21" fill="#2752E7" fill-opacity="0.1"/>
<path d="M10 10V11.3651V14.0953H11.3651V11.3651H30.4767V18.1907H31.8418V10H10ZM10 15.4604V16.8256V31.8418H11.3651H18.1907V30.4767H11.3651V16.8256H22.286V18.1907H23.6511V15.4604H10ZM12.7302 19.5558V20.9209H18.1907V19.5558H12.7302ZM12.7302 23.6511V25.0162H15.4604V23.6511H12.7302ZM12.7302 26.3813V27.7465H18.1907V26.3813H12.7302Z" fill="#2752E7"/>
<path d="M10 10V11.3651V14.0953H11.3651V11.3651H30.4767V18.1907H31.8418V10H10ZM10 15.4604V16.8256V31.8418H11.3651H18.1907V30.4767H11.3651V16.8256H22.286V18.1907H23.6511V15.4604H10ZM12.7302 19.5558V20.9209H18.1907V19.5558H12.7302ZM12.7302 23.6511V25.0162H15.4604V23.6511H12.7302ZM12.7302 26.3813V27.7465H18.1907V26.3813H12.7302Z" stroke="#2752E7"/>
<mask id="path-5-inside-1_0_1" fill="white">
<path d="M19.5547 19.5557V20.9208V31.8417H20.9198H30.4756H31.8407V20.9208V19.5557H19.5547ZM20.9198 20.9208H30.4756V30.4766H20.9198V20.9208ZM22.2849 22.2859V25.0161H29.1105V22.2859H22.2849ZM25.0151 26.3812V27.7463H26.3802V26.3812H25.0151ZM27.7454 26.3812V27.7463H29.1105V26.3812H27.7454Z"/>
</mask>
<path d="M19.5547 19.5557V20.9208V31.8417H20.9198H30.4756H31.8407V20.9208V19.5557H19.5547ZM20.9198 20.9208H30.4756V30.4766H20.9198V20.9208ZM22.2849 22.2859V25.0161H29.1105V22.2859H22.2849ZM25.0151 26.3812V27.7463H26.3802V26.3812H25.0151ZM27.7454 26.3812V27.7463H29.1105V26.3812H27.7454Z" fill="#2752E7"/>
<path d="M19.5547 19.5557V15.8504H15.8494V19.5557H19.5547ZM19.5547 31.8417H15.8494V35.547H19.5547V31.8417ZM31.8407 31.8417V35.547H35.546V31.8417H31.8407ZM31.8407 19.5557H35.546V15.8504H31.8407V19.5557ZM20.9198 20.9208V17.2155H17.2145V20.9208H20.9198ZM30.4756 20.9208H34.1809V17.2155H30.4756V20.9208ZM30.4756 30.4766V34.1819H34.1809V30.4766H30.4756ZM20.9198 30.4766H17.2145V34.1819H20.9198V30.4766ZM22.2849 22.2859V18.5806H18.5796V22.2859H22.2849ZM22.2849 25.0161H18.5796V28.7214H22.2849V25.0161ZM29.1105 25.0161V28.7214H32.8158V25.0161H29.1105ZM29.1105 22.2859H32.8158V18.5806H29.1105V22.2859ZM25.0151 26.3812V22.6759H21.3098V26.3812H25.0151ZM25.0151 27.7463H21.3098V31.4516H25.0151V27.7463ZM26.3802 27.7463V31.4516H30.0856V27.7463H26.3802ZM26.3802 26.3812H30.0856V22.6759H26.3802V26.3812ZM27.7454 26.3812V22.6759H24.0401V26.3812H27.7454ZM27.7454 27.7463H24.0401V31.4516H27.7454V27.7463ZM29.1105 27.7463V31.4516H32.8158V27.7463H29.1105ZM29.1105 26.3812H32.8158V22.6759H29.1105V26.3812ZM15.8494 19.5557V20.9208H23.26V19.5557H15.8494ZM15.8494 20.9208V31.8417H23.26V20.9208H15.8494ZM19.5547 35.547H20.9198V28.1364H19.5547V35.547ZM20.9198 35.547H30.4756V28.1364H20.9198V35.547ZM30.4756 35.547H31.8407V28.1364H30.4756V35.547ZM35.546 31.8417V20.9208H28.1354V31.8417H35.546ZM35.546 20.9208V19.5557H28.1354V20.9208H35.546ZM31.8407 15.8504H19.5547V23.261H31.8407V15.8504ZM20.9198 24.6261H30.4756V17.2155H20.9198V24.6261ZM26.7703 20.9208V30.4766H34.1809V20.9208H26.7703ZM30.4756 26.7713H20.9198V34.1819H30.4756V26.7713ZM24.6251 30.4766V20.9208H17.2145V30.4766H24.6251ZM18.5796 22.2859V25.0161H25.9902V22.2859H18.5796ZM22.2849 28.7214H29.1105V21.3108H22.2849V28.7214ZM32.8158 25.0161V22.2859H25.4052V25.0161H32.8158ZM29.1105 18.5806H22.2849V25.9912H29.1105V18.5806ZM21.3098 26.3812V27.7463H28.7204V26.3812H21.3098ZM25.0151 31.4516H26.3802V24.041H25.0151V31.4516ZM30.0856 27.7463V26.3812H22.6749V27.7463H30.0856ZM26.3802 22.6759H25.0151V30.0865H26.3802V22.6759ZM24.0401 26.3812V27.7463H31.4507V26.3812H24.0401ZM27.7454 31.4516H29.1105V24.041H27.7454V31.4516ZM32.8158 27.7463V26.3812H25.4052V27.7463H32.8158ZM29.1105 22.6759H27.7454V30.0865H29.1105V22.6759Z" fill="#2752E7" mask="url(#path-5-inside-1_0_1)"/>
</g>
<defs>
<linearGradient id="paint0_linear_0_1" x1="676" y1="-120" x2="676" y2="172" gradientUnits="userSpaceOnUse">
<stop stop-color="#2752E7" stop-opacity="0.1"/>
<stop offset="1" stop-color="#D9D9D9" stop-opacity="0"/>
</linearGradient>
<clipPath id="clip0_0_1">
<rect width="1440" height="1024" fill="white" transform="translate(-44 -200)"/>
</clipPath>
</defs>
</svg>
